<?xml version="1.0" standalone="no"?>
<!DOCTYPE svg PUBLIC "-//W3C//DTD SVG 20010904//EN"
 "http://www.w3.org/TR/2001/REC-SVG-20010904/DTD/svg10.dtd">
<svg version="1.0" xmlns="http://www.w3.org/2000/svg"
 width="512.000000pt" height="512.000000pt" viewBox="0 0 512.000000 512.000000"
 preserveAspectRatio="xMidYMid meet">
<metadata>
Created by potrace 1.14, written by Peter Selinger 2001-2017
</metadata>
<g transform="translate(0.000000,512.000000) scale(0.100000,-0.100000)"
fill="#000000" stroke="none">
<path d="M1028 5115 c-2 -2 -41 -5 -88 -8 -86 -6 -220 -30 -268 -48 -15 -6
-35 -12 -45 -14 -9 -2 -53 -22 -96 -43 -273 -137 -438 -382 -485 -718 -17
-122 -18 -313 -2 -315 21 -3 101 1 133 6 l31 6 1 112 c1 113 2 125 15 207 54
328 267 548 596 616 120 25 404 24 492 -2 18 -5 18 -7 38 94 15 79 16 78 -42
86 -74 10 -276 24 -280 21z"/>
<path d="M1935 5084 c-55 -13 -111 -26 -124 -29 -14 -2 -47 -9 -75 -15 -28 -6
-62 -12 -76 -15 -70 -13 -106 -50 -102 -102 2 -21 82 -415 86 -420 0 -1 38 6
84 14 93 17 91 13 67 115 -8 35 -17 79 -20 98 -3 19 -8 43 -11 54 -4 10 -2 16
2 13 5 -3 61 -25 125 -50 290 -113 649 -317 969 -551 61 -44 282 -216 290
-225 3 -3 37 -33 75 -66 74 -63 141 -124 264 -242 l76 -72 62 62 63 61 -68 64
c-37 35 -92 87 -122 116 -161 152 -444 380 -628 508 -53 36 -105 72 -116 80
-17 13 -10 18 78 63 53 28 96 54 96 60 0 19 -64 145 -74 145 -24 0 -235 -123
-229 -134 3 -6 15 -24 26 -39 10 -16 17 -30 15 -32 -3 -3 -27 9 -54 26 -151
96 -457 257 -586 309 -31 13 -55 27 -53 31 3 3 26 10 52 13 81 12 85 14 79 49
-3 18 -10 56 -16 85 -14 61 -9 61 -155 26z"/>
<path d="M3830 5069 c-36 -5 -101 -16 -145 -24 -44 -9 -89 -17 -100 -19 -77
-15 -274 -78 -426 -137 l-127 -50 18 -37 c9 -20 26 -55 35 -77 10 -22 19 -41
21 -43 1 -2 39 13 85 32 167 69 403 140 534 161 184 30 376 38 485 21 233 -38
448 -161 530 -305 8 -14 17 -28 20 -31 27 -26 92 -205 105 -290 4 -25 9 -54
11 -65 12 -58 4 -302 -11 -387 -3 -11 5 -18 23 -22 32 -6 123 -17 137 -17 16
0 32 173 30 316 -5 302 -93 532 -274 715 -123 124 -279 204 -481 247 -86 18
-369 25 -470 12z"/>
<path d="M2158 4327 c-70 -51 -128 -95 -128 -100 0 -4 23 -36 51 -72 l50 -64
127 91 c70 51 128 93 130 94 5 3 -90 144 -97 144 -3 -1 -63 -42 -133 -93z"/>
<path d="M1690 3953 c-41 -38 -96 -88 -123 -113 l-48 -45 60 -59 c43 -43 63
-56 74 -50 8 5 56 47 106 93 50 46 98 89 107 95 16 12 8 24 -76 118 l-25 28
-75 -67z"/>
<path d="M4694 3627 c-115 -32 -210 -60 -211 -61 -5 -4 36 -149 45 -158 5 -5
35 0 73 11 104 32 179 50 179 42 0 -3 -13 -42 -29 -86 -137 -384 -367 -801
-644 -1168 -68 -90 -243 -306 -290 -357 -18 -20 -72 -80 -122 -133 -49 -54
-92 -103 -93 -108 -4 -10 104 -119 117 -119 5 0 19 13 32 29 13 15 67 75 119
131 121 131 105 113 180 205 35 44 71 86 78 94 25 26 187 244 253 341 195 286
374 612 474 867 27 68 50 121 52 119 2 -2 12 -34 23 -71 11 -37 21 -70 23 -72
6 -5 149 35 158 44 11 13 -120 455 -143 479 -11 12 -30 24 -42 26 -13 3 -117
-22 -232 -55z"/>
<path d="M168 3661 c-37 -9 -69 -19 -73 -22 -11 -12 61 -258 78 -265 11 -4
142 38 153 49 3 2 -6 40 -19 83 -14 44 -30 100 -37 127 -7 26 -18 46 -24 46
-6 -1 -41 -9 -78 -18z"/>
<path d="M1347 3628 c-264 -282 -385 -425 -548 -643 -213 -285 -437 -664 -555
-937 -20 -49 -39 -86 -41 -84 -5 5 -7 12 -18 79 -4 27 -14 51 -21 54 -8 3 -48
-2 -89 -12 -69 -15 -75 -18 -70 -38 3 -12 25 -116 50 -231 24 -115 51 -219 60
-232 24 -37 59 -40 180 -15 61 13 121 25 135 27 14 3 50 12 81 20 31 7 67 14
79 14 21 0 22 3 15 43 -4 23 -8 47 -9 52 -2 6 -6 26 -10 46 l-8 36 -115 -23
c-63 -13 -118 -26 -123 -29 -5 -3 -11 -1 -14 4 -6 9 -1 25 25 86 5 11 18 44
29 74 88 228 358 699 538 936 55 72 224 288 232 295 3 3 32 36 65 75 82 95 62
73 249 273 l59 62 -61 60 c-34 33 -63 60 -64 60 -2 0 -25 -23 -51 -52z"/>
<path d="M3742 3532 l-62 -58 108 -120 109 -121 24 21 c14 12 43 37 66 56 l42
36 -28 32 c-16 17 -61 68 -102 113 -41 45 -75 85 -77 90 -6 16 -17 10 -80 -49z"/>
<path d="M2537 3574 c-1 -1 -51 -4 -112 -7 -299 -17 -540 -116 -597 -245 -19
-41 -20 -76 -20 -771 1 -808 -3 -768 67 -836 70 -67 179 -115 337 -149 117
-24 154 -28 318 -31 349 -6 640 74 745 203 50 63 50 58 49 802 0 382 -4 716
-8 741 -22 144 -258 257 -592 285 -81 6 -183 11 -187 8z"/>
<path d="M362 3085 l-72 -34 71 -143 c40 -79 74 -145 76 -148 3 -4 133 61 151
76 7 5 -133 283 -143 283 -5 0 -43 -15 -83 -34z"/>
<path d="M4195 3057 c-23 -18 -53 -42 -68 -54 l-28 -22 92 -125 c50 -69 96
-126 102 -126 5 0 38 20 73 45 l64 46 -38 53 c-77 110 -153 216 -155 215 -1 0
-20 -14 -42 -32z"/>
<path d="M4563 2438 l-73 -42 57 -105 c31 -58 58 -108 60 -110 4 -6 143 61
149 71 5 8 -107 228 -116 228 -3 0 -38 -19 -77 -42z"/>
<path d="M779 2361 l-66 -47 92 -128 c51 -70 96 -130 99 -133 7 -7 135 88 136
101 0 4 -24 40 -53 80 -29 39 -70 95 -91 124 -21 28 -41 52 -44 51 -4 0 -37
-22 -73 -48z"/>
<path d="M4785 2051 c-106 -46 -101 -35 -61 -132 59 -144 127 -362 146 -471 5
-27 11 -51 13 -55 3 -5 8 -35 12 -68 3 -33 9 -76 12 -95 8 -50 7 -256 -1 -315
-43 -313 -216 -540 -481 -630 -121 -41 -214 -53 -380 -50 -88 2 -177 6 -197 9
-33 4 -39 2 -43 -17 -8 -38 -23 -142 -20 -145 3 -3 22 -6 98 -17 57 -8 311 -8
347 0 14 3 46 7 72 10 26 3 82 16 125 29 361 109 580 364 646 753 15 86 16
330 3 438 -16 124 -62 322 -113 480 -21 63 -110 296 -117 301 0 1 -28 -10 -61
-25z"/>
<path d="M1182 1845 l-62 -54 37 -43 c21 -24 57 -64 81 -90 24 -25 56 -60 71
-77 15 -17 30 -31 33 -31 4 0 33 26 66 58 l60 57 -104 115 c-58 63 -108 116
-112 117 -4 1 -35 -22 -70 -52z"/>
<path d="M1553 1457 l-62 -62 28 -25 c15 -14 75 -68 132 -121 283 -263 674
-552 974 -723 55 -31 111 -63 125 -72 54 -32 296 -146 416 -196 70 -28 122
-54 116 -56 -6 -2 -39 -11 -74 -20 -57 -16 -63 -20 -61 -43 3 -47 34 -139 48
-139 7 0 113 29 236 64 236 68 258 80 259 136 0 14 -25 116 -57 228 l-57 204
-29 -6 c-68 -14 -137 -38 -137 -49 0 -7 16 -64 34 -127 19 -63 34 -116 33
-117 -3 -3 -182 60 -262 92 -135 54 -414 194 -517 261 -21 13 -40 24 -43 24
-30 0 -606 410 -645 459 -3 4 -30 26 -60 50 -49 38 -178 152 -266 236 -76 72
-63 72 -131 2z"/>
<path d="M3385 1403 c-33 -30 -86 -79 -118 -109 l-58 -53 43 -48 c24 -26 50
-55 58 -64 17 -19 0 -31 188 140 l72 66 -62 62 -63 62 -60 -56z"/>
<path d="M23 1338 c-1 -7 -5 -42 -9 -78 -11 -82 -11 -323 0 -414 4 -38 18
-106 31 -152 134 -460 520 -698 1080 -665 24 1 24 2 19 73 -3 40 -7 78 -9 85
-3 8 -36 12 -107 12 -57 1 -112 2 -123 5 -11 2 -47 7 -79 11 -78 9 -207 52
-289 98 -81 46 -183 142 -231 219 -38 60 -90 181 -101 233 -29 142 -35 344
-16 480 6 38 7 73 3 76 -7 6 -128 29 -154 29 -8 0 -15 -6 -15 -12z"/>
<path d="M2945 1030 c-3 -5 -60 -48 -125 -95 l-120 -86 47 -70 c31 -46 51 -68
61 -64 26 10 252 179 252 188 0 9 -98 137 -105 137 -2 0 -7 -4 -10 -10z"/>
<path d="M2130 512 c-74 -37 -137 -68 -138 -69 -9 -4 65 -153 76 -153 7 0 76
32 152 70 l139 71 -39 72 c-22 39 -43 73 -47 74 -4 1 -69 -28 -143 -65z"/>
<path d="M1595 295 c-44 -13 -100 -29 -123 -35 -33 -9 -42 -15 -38 -27 4 -8
13 -46 22 -84 9 -38 18 -69 20 -69 11 0 191 52 231 66 l42 15 -27 76 c-15 42
-31 78 -37 79 -5 1 -46 -8 -90 -21z"/>
</g>
</svg>
